<svg version="1.2" xmlns="http://www.w3.org/2000/svg" viewBox="0 0 512 512" width="512px" height="512px">
  <g transform="matrix(18.866199, 0, 0, 19.7987, 29.6056, -22.8449)">
    <path d="M 24 15 C 24 17.174 22.61 19.026 20.67 19.714 L 20.67 15.938 C 20.67 15.176 20.015 14.552 19.215 14.552 L 13.395 14.552 L 11.941 13.166 L 7.576 13.166 C 6.776 13.166 6.128 13.789 6.128 14.552 L 6.123 20 L 6 20 C 2.69 20 0 17.31 0 14 C 0 10.91 2.34 8.36 5.35 8.04 C 6.6 5.64 9.11 4 12 4 C 15.64 4 18.67 6.59 19.35 10.04 C 21.95 10.22 24 12.36 24 15 Z" style="fill: #9C9BA3;">
    </path>
    <path d="M 15.165 22.475 L 12.303 22.437 L 13.281 19.525 C 12.764 19.34 12.395 18.865 12.395 18.307 C 12.395 17.59 13.005 17.008 13.758 17.008 C 14.511 17.008 15.121 17.59 15.121 18.307 C 15.121 18.854 14.767 19.321 14.266 19.513 L 15.165 22.475 Z M 12.017 13.735 L 7.871 13.735 C 7.111 13.735 6.496 14.321 6.496 15.039 L 6.489 22.864 C 6.489 23.582 7.111 24.168 7.871 24.168 L 18.927 24.168 C 19.687 24.168 20.309 23.582 20.309 22.864 L 20.309 16.343 C 20.309 15.626 19.687 15.039 18.927 15.039 L 13.399 15.039 L 12.017 13.735 Z" style="fill: #4C5C8C;">
    </path>
  </g>
</svg>